<svg width="496" height="103" fill="none" xmlns="http://www.w3.org/2000/svg"><path fill="url(#paint0_linear)" d="M0 0h496v103H0z"/><path d="M380.428 67.815c.482-20.154 8.099-33.527 19.66-34.27 4.226-.27 6.545-.423 9.335-.423 2.413 0 5.168.106 10.536.424 12.279.706 17.259 12.008 18.024 13.986l-.577 2.083h2.719c9.489 0 16.811 12.444 19.684 18.212h-79.381v-.012z" fill="#82B6A3"/><path d="M409.435 35.206c2.366 0 5.097.105 10.418.423 10.16.589 14.81 9.442 15.952 12.032l-1.118 4.038h5.45c6.663 0 12.655 7.77 16.258 14.056h-73.813c.895-17.812 7.617-29.478 17.635-30.126 4.191-.282 6.487-.423 9.218-.423zm0-4.156c-2.849 0-5.262.153-9.477.424-13.727.882-21.638 16.528-21.638 38.425h84.762s-9.101-22.368-22.945-22.368c.141-.506-5.321-15.21-20.048-16.057-5.062-.295-8.041-.424-10.654-.424z" fill="#fff"/><path d="M376.06 62.67h4.532c.742 0 1.354.601 1.354 1.355v4.532c0 .742-.6 1.354-1.354 1.354h-4.532c-.742 0-1.354-.6-1.354-1.354v-4.532c0-.754.612-1.354 1.354-1.354zM459.491 62.67h4.532c.742 0 1.354.601 1.354 1.355v4.532c0 .742-.6 1.354-1.354 1.354h-4.532c-.742 0-1.354-.6-1.354-1.354v-4.532a1.362 1.362 0 011.354-1.354z" fill="#fff"/><path d="M378.32 69.899h84.762s5.274-22.368-22.945-22.368h-56.943c-2.025 6.18-4.874 13.81-4.874 22.368z" fill="#fff"/><path d="M408.057 32.357v18.848" stroke="#fff" stroke-width="3.844" stroke-miterlimit="10"/><path d="M394.908 77.597a7.7 7.7 0 100-15.398 7.7 7.7 0 000 15.398z" fill="#82B6A3"/><path d="M394.908 77.597a7.7 7.7 0 100-15.398 7.7 7.7 0 000 15.398z" stroke="#82B6A3" stroke-width="7.688" stroke-miterlimit="10"/><path d="M394.908 77.597a7.7 7.7 0 100-15.398 7.7 7.7 0 000 15.398z" stroke="#fff" stroke-width="3.844" stroke-miterlimit="10"/><path d="M445.07 77.597a7.7 7.7 0 100-15.398 7.7 7.7 0 000 15.398z" fill="#82B6A3"/><path d="M445.07 77.597a7.7 7.7 0 100-15.398 7.7 7.7 0 000 15.398z" stroke="#82B6A3" stroke-width="7.688" stroke-miterlimit="10"/><path d="M445.07 77.597a7.7 7.7 0 100-15.398 7.7 7.7 0 000 15.398z" stroke="#fff" stroke-width="3.844" stroke-miterlimit="10"/><path d="M393.013 35.288c-5.286-3.85-13.056-5.733-22.333-5.58" stroke="#fff" stroke-width="2.333" stroke-miterlimit="10" stroke-linecap="round"/><path d="M373.906 28.813l.2-1.813" stroke="#fff" stroke-width="1.75" stroke-miterlimit="10" stroke-linecap="round"/><path d="M370.561 44.747c.193 0-.1-.165 0 0l-16.061.087c-.01.015-.014.032-.021.049.021-.022-.014.028-.019.044-.023.061.019-.108.019-.044l.021-.022-.279 3.852-4.738-4.415-.001.004c-.805-1.374-2.327-2.177-3.957-1.971a4.03 4.03 0 00-3.496 4.502l1.859 13.48.025-.003-5.723 14.365c-.532 1.35.095 2.794 1.371 3.297a2.482 2.482 0 003.173-1.292l5.159-12.67 2.263 12.597a2.484 2.484 0 002.874 1.865c1.348-.254 2.235-1.553 1.967-2.98l-3.132-16.27-.018-.002-1.07-7.78 3.444 2.827v3.162c0 .304.247.551.551.551l15.352-.287a.551.551 0 00.551-.551V45.115c.001-.009.005-.016.005-.024 0-.13-.045-.25-.119-.345zm-.988 11.844h-14.801v-1.669h7.626l.239-.001c1.277-.024 2.236-1.02 2.213-2.227a2.181 2.181 0 00-2.119-2.138l-7.959 4.366v1.912l14.801-.243zM348.39 41.689a3.844 3.844 0 100-7.688 3.844 3.844 0 000 7.688z" fill="#fff"/><path d="M56.689 63.518c-3.897 0-7.116-1.295-9.657-3.885-2.54-2.59-3.811-5.784-3.811-9.583 0-3.823 1.27-7.018 3.811-9.583 2.54-2.59 5.76-3.885 9.657-3.885 2.343 0 4.502.555 6.475 1.665 1.998 1.085 3.552 2.565 4.662 4.44l-4.403 2.553a6.716 6.716 0 00-2.738-2.701c-1.184-.666-2.516-.999-3.996-.999-2.516 0-4.551.79-6.105 2.368-1.53 1.579-2.294 3.626-2.294 6.142 0 2.491.765 4.526 2.294 6.105 1.554 1.579 3.589 2.368 6.105 2.368 1.48 0 2.812-.32 3.996-.962 1.209-.666 2.121-1.566 2.738-2.701l4.403 2.553c-1.11 1.875-2.652 3.367-4.625 4.477-1.973 1.085-4.144 1.628-6.512 1.628zM82.129 44.5h4.774V63H82.13v-2.072c-1.16 1.727-2.997 2.59-5.513 2.59-2.023 0-3.7-.678-5.032-2.035-1.308-1.357-1.961-3.231-1.961-5.624V44.5h4.773v10.767c0 1.233.333 2.183.999 2.849.666.641 1.554.962 2.664.962 1.233 0 2.22-.382 2.96-1.147.74-.765 1.11-1.912 1.11-3.441V44.5zm12.808 3.182c.444-1.184 1.172-2.072 2.183-2.664 1.036-.592 2.183-.888 3.441-.888v5.328c-1.455-.173-2.763.123-3.922.888-1.135.765-1.702 2.035-1.702 3.811V63h-4.773V44.5h4.773v3.182zm18.073-3.7c2.491 0 4.612.95 6.364 2.849 1.776 1.875 2.664 4.181 2.664 6.919 0 2.738-.888 5.057-2.664 6.956-1.752 1.875-3.873 2.812-6.364 2.812-2.59 0-4.588-.9-5.994-2.701V63h-4.773V37.1h4.773v9.583c1.406-1.8 3.404-2.701 5.994-2.701zm-4.551 13.542c.962.962 2.183 1.443 3.663 1.443s2.701-.481 3.663-1.443c.986-.987 1.48-2.245 1.48-3.774 0-1.53-.494-2.775-1.48-3.737-.962-.987-2.183-1.48-3.663-1.48s-2.701.493-3.663 1.48c-.962.962-1.443 2.208-1.443 3.737 0 1.53.481 2.787 1.443 3.774zm19.84-7.77c0 .493.321.9.962 1.221.666.296 1.468.567 2.405.814.938.222 1.875.518 2.812.888.938.345 1.727.937 2.368 1.776.666.839.999 1.887.999 3.145 0 1.9-.715 3.367-2.146 4.403-1.406 1.011-3.169 1.517-5.291 1.517-3.798 0-6.388-1.468-7.77-4.403l4.144-2.331c.543 1.603 1.752 2.405 3.626 2.405 1.702 0 2.553-.53 2.553-1.591 0-.493-.333-.888-.999-1.184-.641-.32-1.43-.604-2.368-.851a25.025 25.025 0 01-2.812-.925 5.982 5.982 0 01-2.405-1.739c-.641-.814-.962-1.825-.962-3.034 0-1.825.666-3.256 1.998-4.292 1.357-1.06 3.034-1.591 5.032-1.591 1.505 0 2.874.345 4.107 1.036 1.234.666 2.208 1.628 2.923 2.886l-4.07 2.22c-.592-1.258-1.578-1.887-2.96-1.887-.616 0-1.134.136-1.554.407-.394.271-.592.641-.592 1.11zm13.874-7.474c-.789 0-1.48-.284-2.072-.851-.567-.592-.851-1.283-.851-2.072 0-.79.284-1.48.851-2.072.592-.592 1.283-.888 2.072-.888.814 0 1.505.296 2.072.888.592.592.888 1.283.888 2.072 0 .79-.296 1.48-.888 2.072-.567.567-1.258.851-2.072.851zM139.805 63V44.5h4.773V63h-4.773zm22.054-25.9h4.773V63h-4.773v-2.183c-1.406 1.8-3.404 2.701-5.994 2.701-2.491 0-4.625-.937-6.401-2.812-1.751-1.9-2.627-4.218-2.627-6.956 0-2.738.876-5.044 2.627-6.919 1.776-1.9 3.91-2.849 6.401-2.849 2.59 0 4.588.9 5.994 2.701V37.1zm-8.806 20.424c.987.962 2.22 1.443 3.7 1.443s2.701-.481 3.663-1.443c.962-.987 1.443-2.245 1.443-3.774 0-1.53-.481-2.775-1.443-3.737-.962-.987-2.183-1.48-3.663-1.48s-2.713.493-3.7 1.48c-.962.962-1.443 2.208-1.443 3.737 0 1.53.481 2.787 1.443 3.774zm20.868-1.813c.641 2.319 2.38 3.478 5.217 3.478 1.825 0 3.206-.617 4.144-1.85l3.848 2.22c-1.826 2.64-4.514 3.959-8.066 3.959-3.059 0-5.513-.925-7.363-2.775-1.85-1.85-2.775-4.181-2.775-6.993 0-2.787.912-5.106 2.738-6.956 1.825-1.875 4.168-2.812 7.03-2.812 2.713 0 4.945.937 6.697 2.812 1.776 1.875 2.664 4.193 2.664 6.956 0 .617-.062 1.27-.185 1.961h-13.949zm-.074-3.7h9.435c-.272-1.258-.839-2.195-1.702-2.812-.839-.617-1.801-.925-2.886-.925-1.283 0-2.344.333-3.182.999-.839.641-1.394 1.554-1.665 2.738zM208.296 37.1c2.491 0 4.588.839 6.29 2.516s2.553 3.737 2.553 6.179-.851 4.502-2.553 6.179c-1.702 1.677-3.799 2.516-6.29 2.516h-4.551V63h-5.106V37.1h9.657zm0 12.617c1.085 0 1.985-.37 2.701-1.11.715-.765 1.073-1.702 1.073-2.812 0-1.135-.358-2.072-1.073-2.812-.716-.74-1.616-1.11-2.701-1.11h-4.551v7.844h4.551zm13.203-7.437c-.789 0-1.48-.284-2.072-.851-.567-.592-.851-1.283-.851-2.072 0-.79.284-1.48.851-2.072.592-.592 1.283-.888 2.072-.888.814 0 1.505.296 2.072.888.592.592.888 1.283.888 2.072 0 .79-.296 1.48-.888 2.072-.567.567-1.258.851-2.072.851zM219.131 63V44.5h4.773V63h-4.773zm16.837.518c-2.787 0-5.118-.937-6.993-2.812-1.85-1.875-2.775-4.193-2.775-6.956 0-2.763.925-5.081 2.775-6.956 1.875-1.875 4.206-2.812 6.993-2.812 1.801 0 3.441.432 4.921 1.295 1.48.863 2.603 2.023 3.367 3.478l-4.107 2.405a4.156 4.156 0 00-1.702-1.813c-.74-.444-1.578-.666-2.516-.666-1.43 0-2.614.481-3.552 1.443-.937.937-1.406 2.146-1.406 3.626 0 1.455.469 2.664 1.406 3.626.938.937 2.122 1.406 3.552 1.406.962 0 1.813-.21 2.553-.629a4.156 4.156 0 001.702-1.813l4.144 2.368c-.814 1.455-1.961 2.627-3.441 3.515-1.48.863-3.12 1.295-4.921 1.295zM262.802 63h-5.55l-6.734-8.399V63h-4.773V37.1h4.773v15.54l6.364-8.14h5.698l-7.437 9.139L262.802 63zm12.76-18.5h4.773V63h-4.773v-2.072c-1.16 1.727-2.997 2.59-5.513 2.59-2.023 0-3.7-.678-5.032-2.035-1.308-1.357-1.961-3.231-1.961-5.624V44.5h4.773v10.767c0 1.233.333 2.183.999 2.849.666.641 1.554.962 2.664.962 1.233 0 2.22-.382 2.96-1.147.74-.765 1.11-1.912 1.11-3.441V44.5zm18.801-.518c2.491 0 4.613.95 6.364 2.849 1.776 1.875 2.664 4.181 2.664 6.919 0 2.738-.888 5.057-2.664 6.956-1.751 1.875-3.873 2.812-6.364 2.812-2.59 0-4.588-.9-5.994-2.701V70.4h-4.773V44.5h4.773v2.183c1.406-1.8 3.404-2.701 5.994-2.701zm-4.551 13.542c.962.962 2.183 1.443 3.663 1.443s2.701-.481 3.663-1.443c.987-.987 1.48-2.245 1.48-3.774 0-1.53-.493-2.775-1.48-3.737-.962-.987-2.183-1.48-3.663-1.48s-2.701.493-3.663 1.48c-.962.962-1.443 2.208-1.443 3.737 0 1.53.481 2.787 1.443 3.774z" fill="url(#paint1_linear)"/><rect x="354" y="44.334" width="18" height="14" rx="1" fill="#fff"/><defs><linearGradient id="paint0_linear" x1="66" y1="0" x2="410.5" y2="108" gradientUnits="userSpaceOnUse"><stop stop-color="#94D3A2"/><stop offset="1" stop-color="#82B6A3"/></linearGradient><linearGradient id="paint1_linear" x1="182" y1="33.5" x2="182" y2="72.5" gradientUnits="userSpaceOnUse"><stop stop-color="#fff"/><stop offset="1" stop-color="#EEE"/></linearGradient></defs></svg>